# xmcd
#
# Track frame offsets:
#	150
#	17131
#	30182
#	46427
#	58430
#	74821
#	83110
#	100545
#	119606
#	136239
#	150826
#	163793
#	177078
#
# Disc length: 2602 seconds
# Revision: 0
# Processed by: cddbd v1.5.2PL0 Copyright (c) Steve Scherf et al.
# Submitted via: dBpowerAMP V12.0
#
DISCID=a70a280d
DTITLE=Whiskey Chimp - naranja
DYEAR=2004
DGENRE=Bluegrass
TTITLE0=good guys and bad guys
TTITLE1=country dance
TTITLE2=sweet emotion
TTITLE3=carve that possum
TTITLE4=frog licker
TTITLE5=tallyson's reel
TTITLE6=blood red
TTITLE7=jar of fireflies
TTITLE8=i never will marry
TTITLE9=paradise city
TTITLE10=man of my word
TTITLE11=darwinian gospel
TTITLE12=comin' down
EXTD=
EXTT0=
EXTT1=
EXTT2=
EXTT3=
EXTT4=
EXTT5=
EXTT6=
EXTT7=
EXTT8=
EXTT9=
EXTT10=
EXTT11=
EXTT12=
PLAYORDER=
